# xmcd CD database file
#
# Track frame offsets:
#	150
#	16972
#	35817
#
# Disc length: 699 seconds
#
# Revision: 1
# Processed by: cddbd v1.5.1PL0 Copyright (c) Steve Scherf et al.
# Submitted via: CDex 1.51
#
DISCID=1e02b903
DTITLE=朝倉ゆかり - 時空探偵ゲンシクン オープニング・テーマ
DYEAR=1998
DGENRE=Anime
TTITLE0=パワーなきもち
TTITLE1=月うさぎ
TTITLE2=パワーなきもち (カラオケ)
EXTD=YEAR: 1998
EXTT0=
EXTT1=
EXTT2=
PLAYORDER=
